<svg width="22" height="22" viewBox="0 0 22 22" fill="none" xmlns="http://www.w3.org/2000/svg">
<g clip-path="url(#clip0_5_17)">
<path d="M12.9443 9.74291C14.0183 10.8169 14.0183 12.5581 12.9443 13.6321C11.8703 14.7061 10.1291 14.7061 9.05512 13.6321C7.98114 12.5581 7.98114 10.8169 9.05512 9.74291C10.1291 8.66893 11.8703 8.66893 12.9443 9.74291Z" fill="#989898"/>
<path d="M19.25 3.7501H17.3499L15.9742 1H6.02455L4.65015 3.75145L2.75275 3.75482C1.24009 3.75753 0.00869272 4.99023 0.00738656 6.50357L0 17.4999C0 19.0166 1.23337 20.2506 2.7501 20.2506H19.25C20.7667 20.2506 22.0001 19.0173 22.0001 17.5005V6.50015C22 4.98347 20.7666 3.7501 19.25 3.7501ZM10.9997 16.813C7.9669 16.813 5.49947 14.3456 5.49947 11.3128C5.49947 8.28004 7.9669 5.81261 10.9997 5.81261C14.0324 5.81261 16.4999 8.28004 16.4999 11.3128C16.4999 14.3456 14.0324 16.813 10.9997 16.813Z" fill="#989898"/>
</g>
<defs>
<clipPath id="clip0_5_17">
<rect width="22" height="22" fill="white"/>
</clipPath>
</defs>
</svg>
